# xmcd CD database file generated by LOLA_Freedb v0.9beta0
# 
# Track frame offsets:
#      150
#      13256
#      26692
#      37431
#      48947
#      61676
#      73213
#      84633
#      96223
#      105762
#      121621
#      132363
#      144998
#      156579
#      168624
#      174335
# 
# Disc length: 2531 seconds
# 
# Revision: 0 
# Processed by: cddbd v1.5.1PL2 Copyright (c) Steve Scherf et al.
# Submitted via: LOLA_Freedb v0.9beta0
# 
DISCID=d909e110
DTITLE=Charley Pride - Charley Pride
DYEAR=2002
DGENRE=
TTITLE0=Charley Pride - Kaw-Liga
TTITLE1=Charley Pride - I`m So Afraid Of Losing You
TTITLE2=Charley Pride - Oklahoma Morning
TTITLE3=Charley Pride - It`s Going To Take A Little Bit Longer
TTITLE4=Charley Pride - Crystal Chandeliers
TTITLE5=Charley Pride - Shutters And Boards
TTITLE6=Charley Pride - The Happiness Of Having You
TTITLE7=Charley Pride - My Eyes Con Only See As Far As You
TTITLE8=Charley Pride - Kiss An Angel Good Morning
TTITLE9=Charley Pride - Let Me Live In The Light
TTITLE10=Charley Pride - Mississippi Cotton-Picking Delta Town
TTITLE11=Charley Pride - Help Me Make It Through The Night
TTITLE12=Charley Pride - Louisiana Man
TTITLE13=Charley Pride - There Goes My Everything
TTITLE14=Charley Pride - Lovesick Blues
TTITLE15=Charley Pride - Me And Bobby McGhee
EXTD=
EXTT0=
EXTT1=
EXTT2=
EXTT3=
EXTT4=
EXTT5=
EXTT6=
EXTT7=
EXTT8=
EXTT9=
EXTT10=
EXTT11=
EXTT12=
EXTT13=
EXTT14=
EXTT15=
PLAYORDER=
